<?xml version="1.0" encoding="UTF-8" standalone="no"?>
<svg
   xmlns:dc="http://purl.org/dc/elements/1.1/"
   xmlns:cc="http://creativecommons.org/ns#"
   xmlns:rdf="http://www.w3.org/1999/02/22-rdf-syntax-ns#"
   xmlns:svg="http://www.w3.org/2000/svg"
   xmlns="http://www.w3.org/2000/svg"
   xmlns:sodipodi="http://sodipodi.sourceforge.net/DTD/sodipodi-0.dtd"
   xmlns:inkscape="http://www.inkscape.org/namespaces/inkscape"
   width="32"
   height="32"
   viewBox="0 0 8.466667 8.466667"
   version="1.1"
   id="svg8"
   inkscape:version="1.0.2-2 (e86c870879, 2021-01-15)"
   sodipodi:docname="logo-mobile.svg">
  <defs
     id="defs2" />
  <sodipodi:namedview
     id="base"
     pagecolor="#ffffff"
     bordercolor="#666666"
     borderopacity="1.0"
     inkscape:pageopacity="0.0"
     inkscape:pageshadow="2"
     inkscape:zoom="7.9195959"
     inkscape:cx="42.429654"
     inkscape:cy="55.738173"
     inkscape:document-units="mm"
     inkscape:current-layer="layer1"
     inkscape:document-rotation="0"
     showgrid="false"
     units="px"
     inkscape:window-width="1920"
     inkscape:window-height="1027"
     inkscape:window-x="-8"
     inkscape:window-y="-8"
     inkscape:window-maximized="1" />
  <metadata
     id="metadata5">
    <rdf:RDF>
      <cc:Work
         rdf:about="">
        <dc:format>image/svg+xml</dc:format>
        <dc:type
           rdf:resource="http://purl.org/dc/dcmitype/StillImage" />
        <dc:title></dc:title>
      </cc:Work>
    </rdf:RDF>
  </metadata>
  <g
     inkscape:label="Layer 1"
     inkscape:groupmode="layer"
     id="layer1">
    <path
       style="fill:none;fill-opacity:1;stroke:#127369;stroke-width:0.264999;stroke-linecap:round;stroke-miterlimit:4;stroke-dasharray:none;stroke-opacity:1"
       id="path844"
       sodipodi:type="arc"
       sodipodi:cx="5.4241662"
       sodipodi:cy="4.3658323"
       sodipodi:rx="2.1166666"
       sodipodi:ry="2.1166666"
       sodipodi:start="4.712389"
       sodipodi:end="3.1415927"
       sodipodi:arc-type="arc"
       sodipodi:open="true"
       d="M 5.4241662,2.2491658 A 2.1166666,2.1166666 0 0 1 7.3797111,3.5558192 2.1166666,2.1166666 0 0 1 6.9208754,5.8625417 2.1166666,2.1166666 0 0 1 4.6141529,6.3213772 2.1166666,2.1166666 0 0 1 3.3074996,4.3658323" />
    <path
       style="fill:none;fill-opacity:1;stroke:#127369;stroke-width:0.264999;stroke-linecap:round;stroke-miterlimit:4;stroke-dasharray:none;stroke-opacity:1"
       id="path844-1"
       sodipodi:type="arc"
       sodipodi:cx="5.4241662"
       sodipodi:cy="-4.3657284"
       sodipodi:rx="2.1166666"
       sodipodi:ry="2.1166203"
       sodipodi:start="4.712389"
       sodipodi:end="3.1415927"
       sodipodi:arc-type="arc"
       sodipodi:open="true"
       transform="rotate(90)"
       d="m 5.4241662,-6.4823487 a 2.1166666,2.1166203 0 0 1 1.9555449,1.3066249 2.1166666,2.1166203 0 0 1 -0.4588357,2.306672 2.1166666,2.1166203 0 0 1 -2.3067225,0.4588256 2.1166666,2.1166203 0 0 1 -1.3066533,-1.9555022" />
    <path
       style="fill:none;fill-opacity:1;stroke:#127369;stroke-width:0.264999;stroke-linecap:round;stroke-miterlimit:4;stroke-dasharray:none;stroke-opacity:1"
       id="path844-2"
       sodipodi:type="arc"
       sodipodi:cx="-3.307441"
       sodipodi:cy="-4.3657742"
       sodipodi:rx="2.1166666"
       sodipodi:ry="2.1166666"
       sodipodi:start="4.712389"
       sodipodi:end="3.1415927"
       sodipodi:arc-type="arc"
       sodipodi:open="true"
       transform="scale(-1)"
       d="m -3.307441,-6.4824407 a 2.1166666,2.1166666 0 0 1 1.9555449,1.3066534 2.1166666,2.1166666 0 0 1 -0.4588357,2.3067225 2.1166666,2.1166666 0 0 1 -2.3067225,0.4588355 2.1166666,2.1166666 0 0 1 -1.3066533,-1.9555449" />
    <path
       style="fill:none;fill-opacity:1;stroke:#127369;stroke-width:0.264999;stroke-linecap:round;stroke-miterlimit:4;stroke-dasharray:none;stroke-opacity:1"
       id="path844-6"
       sodipodi:type="arc"
       sodipodi:cx="-3.307441"
       sodipodi:cy="4.3658328"
       sodipodi:rx="2.1166666"
       sodipodi:ry="2.1166666"
       sodipodi:start="4.712389"
       sodipodi:end="3.1415927"
       sodipodi:arc-type="arc"
       sodipodi:open="true"
       transform="rotate(-90)"
       d="M -3.307441,2.2491663 A 2.1166666,2.1166666 0 0 1 -1.3518961,3.5558196 2.1166666,2.1166666 0 0 1 -1.8107318,5.8625421 2.1166666,2.1166666 0 0 1 -4.1174543,6.3213777 2.1166666,2.1166666 0 0 1 -5.4241076,4.3658328" />
  </g>
</svg>
